<svg xmlns="http://www.w3.org/2000/svg" xmlns:xlink="http://www.w3.org/1999/xlink" viewBox="0 0 20 20"><defs><style>.a{fill:none;}.b{clip-path:url(#a);}.c{opacity:0.32;}.d{fill:#fff;}</style><clipPath id="a"><rect class="a" x="-2627.23" y="-1683.41" width="1922.64" height="825.6"/></clipPath></defs><path class="d" d="M16.15,4.28a14.75,14.75,0,0,0-3.71-1.14c-.16.29-.34.67-.47,1a13.55,13.55,0,0,0-4.12,0,9,9,0,0,0-.49-1A13.69,13.69,0,0,0,3.65,4.3,15.24,15.24,0,0,0,1,14.57a14.7,14.7,0,0,0,4.56,2.29,10.31,10.31,0,0,0,1-1.58A8.93,8.93,0,0,1,5,14.55l.38-.29a10.68,10.68,0,0,0,9.11,0l.38.29a8.78,8.78,0,0,1-1.55.73,10.37,10.37,0,0,0,1,1.58,14.76,14.76,0,0,0,4.55-2.29A15.28,15.28,0,0,0,16.15,4.28ZM6.9,12.48a1.72,1.72,0,0,1-1.61-1.8A1.74,1.74,0,0,1,6.9,8.85a1.73,1.73,0,0,1,1.63,1.83A1.72,1.72,0,0,1,6.9,12.48Zm6,0a1.72,1.72,0,0,1-1.61-1.8,1.74,1.74,0,0,1,1.61-1.83,1.7,1.7,0,0,1,1.61,1.83A1.71,1.71,0,0,1,12.89,12.48Z"/></svg>