<svg xmlns="http://www.w3.org/2000/svg" width="480" height="320"><rect width="480" height="320" fill="#EBF0FC"/><g fill="#0843BF"><rect x="0" y="0" width="8" height="8"/><rect x="16" y="0" width="8" height="8"/><rect x="32" y="0" width="8" height="8"/><rect x="48" y="0" width="8" height="8"/><rect x="64" y="0" width="8" height="8"/><rect x="80" y="0" width="8" height="8"/><rect x="96" y="0" width="8" height="8"/><rect x="112" y="0" width="8" height="8"/><rect x="128" y="0" width="8" height="8"/><rect x="144" y="0" width="8" height="8"/><rect x="160" y="0" width="8" height="8"/><rect x="176" y="0" width="8" height="8"/><rect x="192" y="0" width="8" height="8"/><rect x="208" y="0" width="8" height="8"/><rect x="224" y="0" width="8" height="8"/><rect x="240" y="0" width="8" height="8"/><rect x="256" y="0" width="8" height="8"/><rect x="272" y="0" width="8" height="8"/><rect x="288" y="0" width="8" height="8"/><rect x="304" y="0" width="8" height="8"/><rect x="320" y="0" width="8" height="8"/><rect x="352" y="0" width="8" height="8"/><rect x="384" y="0" width="8" height="8"/><rect x="416" y="0" width="8" height="8"/><rect x="448" y="0" width="8" height="8"/><rect x="8" y="8" width="8" height="8"/><rect x="24" y="8" width="8" height="8"/><rect x="40" y="8" width="8" height="8"/><rect x="56" y="8" width="8" height="8"/><rect x="72" y="8" width="8" height="8"/><rect x="104" y="8" width="8" height="8"/><rect x="136" y="8" width="8" height="8"/><rect x="168" y="8" width="8" height="8"/><rect x="0" y="16" width="8" height="8"/><rect x="16" y="16" width="8" height="8"/><rect x="32" y="16" width="8" height="8"/><rect x="48" y="16" width="8" height="8"/><rect x="64" y="16" width="8" height="8"/><rect x="80" y="16" width="8" height="8"/><rect x="96" y="16" width="8" height="8"/><rect x="112" y="16" width="8" height="8"/><rect x="128" y="16" width="8" height="8"/><rect x="144" y="16" width="8" height="8"/><rect x="160" y="16" width="8" height="8"/><rect x="176" y="16" width="8" height="8"/><rect x="192" y="16" width="8" height="8"/><rect x="208" y="16" width="8" height="8"/><rect x="224" y="16" width="8" height="8"/><rect x="240" y="16" width="8" height="8"/><rect x="256" y="16" width="8" height="8"/><rect x="272" y="16" width="8" height="8"/><rect x="304" y="16" width="8" height="8"/><rect x="336" y="16" width="8" height="8"/><rect x="368" y="16" width="8" height="8"/><rect x="400" y="16" width="8" height="8"/><rect x="8" y="24" width="8" height="8"/><rect x="24" y="24" width="8" height="8"/><rect x="56" y="24" width="8" height="8"/><rect x="88" y="24" width="8" height="8"/><rect x="120" y="24" width="8" height="8"/><rect x="0" y="32" width="8" height="8"/><rect x="16" y="32" width="8" height="8"/><rect x="32" y="32" width="8" height="8"/><rect x="48" y="32" width="8" height="8"/><rect x="64" y="32" width="8" height="8"/><rect x="80" y="32" width="8" height="8"/><rect x="96" y="32" width="8" height="8"/><rect x="112" y="32" width="8" height="8"/><rect x="128" y="32" width="8" height="8"/><rect x="144" y="32" width="8" height="8"/><rect x="160" y="32" width="8" height="8"/><rect x="176" y="32" width="8" height="8"/><rect x="192" y="32" width="8" height="8"/><rect x="208" y="32" width="8" height="8"/><rect x="224" y="32" width="8" height="8"/><rect x="240" y="32" width="8" height="8"/><rect x="256" y="32" width="8" height="8"/><rect x="272" y="32" width="8" height="8"/><rect x="288" y="32" width="8" height="8"/><rect x="304" y="32" width="8" height="8"/><rect x="320" y="32" width="8" height="8"/><rect x="336" y="32" width="8" height="8"/><rect x="352" y="32" width="8" height="8"/><rect x="384" y="32" width="8" height="8"/><rect x="416" y="32" width="8" height="8"/><rect x="448" y="32" width="8" height="8"/><rect x="8" y="40" width="8" height="8"/><rect x="24" y="40" width="8" height="8"/><rect x="40" y="40" width="8" height="8"/><rect x="56" y="40" width="8" height="8"/><rect x="72" y="40" width="8" height="8"/><rect x="88" y="40" width="8" height="8"/><rect x="104" y="40" width="8" height="8"/><rect x="136" y="40" width="8" height="8"/><rect x="168" y="40" width="8" height="8"/><rect x="200" y="40" width="8" height="8"/><rect x="232" y="40" width="8" height="8"/><rect x="0" y="48" width="8" height="8"/><rect x="16" y="48" width="8" height="8"/><rect x="32" y="48" width="8" height="8"/><rect x="48" y="48" width="8" height="8"/><rect x="64" y="48" width="8" height="8"/><rect x="80" y="48" width="8" height="8"/><rect x="96" y="48" width="8" height="8"/><rect x="112" y="48" width="8" height="8"/><rect x="128" y="48" width="8" height="8"/><rect x="144" y="48" width="8" height="8"/><rect x="160" y="48" width="8" height="8"/><rect x="176" y="48" width="8" height="8"/><rect x="192" y="48" width="8" height="8"/><rect x="208" y="48" width="8" height="8"/><rect x="224" y="48" width="8" height="8"/><rect x="240" y="48" width="8" height="8"/><rect x="256" y="48" width="8" height="8"/><rect x="272" y="48" width="8" height="8"/><rect x="288" y="48" width="8" height="8"/><rect x="304" y="48" width="8" height="8"/><rect x="336" y="48" width="8" height="8"/><rect x="368" y="48" width="8" height="8"/><rect x="400" y="48" width="8" height="8"/><rect x="432" y="48" width="8" height="8"/><rect x="8" y="56" width="8" height="8"/><rect x="24" y="56" width="8" height="8"/><rect x="40" y="56" width="8" height="8"/><rect x="56" y="56" width="8" height="8"/><rect x="72" y="56" width="8" height="8"/><rect x="88" y="56" width="8" height="8"/><rect x="120" y="56" width="8" height="8"/><rect x="152" y="56" width="8" height="8"/><rect x="184" y="56" width="8" height="8"/><rect x="0" y="64" width="8" height="8"/><rect x="8" y="64" width="8" height="8"/><rect x="16" y="64" width="8" height="8"/><rect x="32" y="64" width="8" height="8"/><rect x="48" y="64" width="8" height="8"/><rect x="64" y="64" width="8" height="8"/><rect x="80" y="64" width="8" height="8"/><rect x="96" y="64" width="8" height="8"/><rect x="112" y="64" width="8" height="8"/><rect x="128" y="64" width="8" height="8"/><rect x="144" y="64" width="8" height="8"/><rect x="160" y="64" width="8" height="8"/><rect x="176" y="64" width="8" height="8"/><rect x="192" y="64" width="8" height="8"/><rect x="208" y="64" width="8" height="8"/><rect x="224" y="64" width="8" height="8"/><rect x="240" y="64" width="8" height="8"/><rect x="256" y="64" width="8" height="8"/><rect x="272" y="64" width="8" height="8"/><rect x="288" y="64" width="8" height="8"/><rect x="304" y="64" width="8" height="8"/><rect x="320" y="64" width="8" height="8"/><rect x="336" y="64" width="8" height="8"/><rect x="352" y="64" width="8" height="8"/><rect x="368" y="64" width="8" height="8"/><rect x="384" y="64" width="8" height="8"/><rect x="400" y="64" width="8" height="8"/><rect x="416" y="64" width="8" height="8"/><rect x="448" y="64" width="8" height="8"/><rect x="8" y="72" width="8" height="8"/><rect x="24" y="72" width="8" height="8"/><rect x="40" y="72" width="8" height="8"/><rect x="56" y="72" width="8" height="8"/><rect x="72" y="72" width="8" height="8"/><rect x="88" y="72" width="8" height="8"/><rect x="104" y="72" width="8" height="8"/><rect x="120" y="72" width="8" height="8"/><rect x="136" y="72" width="8" height="8"/><rect x="152" y="72" width="8" height="8"/><rect x="168" y="72" width="8" height="8"/><rect x="200" y="72" width="8" height="8"/><rect x="232" y="72" width="8" height="8"/><rect x="264" y="72" width="8" height="8"/><rect x="0" y="80" width="8" height="8"/><rect x="16" y="80" width="8" height="8"/><rect x="32" y="80" width="8" height="8"/><rect x="48" y="80" width="8" height="8"/><rect x="64" y="80" width="8" height="8"/><rect x="80" y="80" width="8" height="8"/><rect x="96" y="80" width="8" height="8"/><rect x="112" y="80" width="8" height="8"/><rect x="128" y="80" width="8" height="8"/><rect x="144" y="80" width="8" height="8"/><rect x="160" y="80" width="8" height="8"/><rect x="176" y="80" width="8" height="8"/><rect x="192" y="80" width="8" height="8"/><rect x="208" y="80" width="8" height="8"/><rect x="224" y="80" width="8" height="8"/><rect x="240" y="80" width="8" height="8"/><rect x="256" y="80" width="8" height="8"/><rect x="272" y="80" width="8" height="8"/><rect x="288" y="80" width="8" height="8"/><rect x="304" y="80" width="8" height="8"/><rect x="320" y="80" width="8" height="8"/><rect x="336" y="80" width="8" height="8"/><rect x="352" y="80" width="8" height="8"/><rect x="368" y="80" width="8" height="8"/><rect x="400" y="80" width="8" height="8"/><rect x="432" y="80" width="8" height="8"/><rect x="464" y="80" width="8" height="8"/><rect x="8" y="88" width="8" height="8"/><rect x="24" y="88" width="8" height="8"/><rect x="40" y="88" width="8" height="8"/><rect x="56" y="88" width="8" height="8"/><rect x="72" y="88" width="8" height="8"/><rect x="88" y="88" width="8" height="8"/><rect x="104" y="88" width="8" height="8"/><rect x="120" y="88" width="8" height="8"/><rect x="152" y="88" width="8" height="8"/><rect x="184" y="88" width="8" height="8"/><rect x="216" y="88" width="8" height="8"/><rect x="0" y="96" width="8" height="8"/><rect x="8" y="96" width="8" height="8"/><rect x="16" y="96" width="8" height="8"/><rect x="32" y="96" width="8" height="8"/><rect x="40" y="96" width="8" height="8"/><rect x="48" y="96" width="8" height="8"/><rect x="64" y="96" width="8" height="8"/><rect x="72" y="96" width="8" height="8"/><rect x="80" y="96" width="8" height="8"/><rect x="96" y="96" width="8" height="8"/><rect x="112" y="96" width="8" height="8"/><rect x="128" y="96" width="8" height="8"/><rect x="144" y="96" width="8" height="8"/><rect x="160" y="96" width="8" height="8"/><rect x="176" y="96" width="8" height="8"/><rect x="192" y="96" width="8" height="8"/><rect x="208" y="96" width="8" height="8"/><rect x="224" y="96" width="8" height="8"/><rect x="240" y="96" width="8" height="8"/><rect x="256" y="96" width="8" height="8"/><rect x="272" y="96" width="8" height="8"/><rect x="288" y="96" width="8" height="8"/><rect x="304" y="96" width="8" height="8"/><rect x="320" y="96" width="8" height="8"/><rect x="336" y="96" width="8" height="8"/><rect x="352" y="96" width="8" height="8"/><rect x="368" y="96" width="8" height="8"/><rect x="384" y="96" width="8" height="8"/><rect x="400" y="96" width="8" height="8"/><rect x="416" y="96" width="8" height="8"/><rect x="432" y="96" width="8" height="8"/><rect x="448" y="96" width="8" height="8"/><rect x="8" y="104" width="8" height="8"/><rect x="24" y="104" width="8" height="8"/><rect x="40" y="104" width="8" height="8"/><rect x="56" y="104" width="8" height="8"/><rect x="72" y="104" width="8" height="8"/><rect x="88" y="104" width="8" height="8"/><rect x="104" y="104" width="8" height="8"/><rect x="120" y="104" width="8" height="8"/><rect x="136" y="104" width="8" height="8"/><rect x="152" y="104" width="8" height="8"/><rect x="168" y="104" width="8" height="8"/><rect x="184" y="104" width="8" height="8"/><rect x="200" y="104" width="8" height="8"/><rect x="232" y="104" width="8" height="8"/><rect x="264" y="104" width="8" height="8"/><rect x="296" y="104" width="8" height="8"/><rect x="328" y="104" width="8" height="8"/><rect x="0" y="112" width="8" height="8"/><rect x="16" y="112" width="8" height="8"/><rect x="24" y="112" width="8" height="8"/><rect x="32" y="112" width="8" height="8"/><rect x="48" y="112" width="8" height="8"/><rect x="56" y="112" width="8" height="8"/><rect x="64" y="112" width="8" height="8"/><rect x="80" y="112" width="8" height="8"/><rect x="96" y="112" width="8" height="8"/><rect x="112" y="112" width="8" height="8"/><rect x="128" y="112" width="8" height="8"/><rect x="144" y="112" width="8" height="8"/><rect x="160" y="112" width="8" height="8"/><rect x="176" y="112" width="8" height="8"/><rect x="192" y="112" width="8" height="8"/><rect x="208" y="112" width="8" height="8"/><rect x="224" y="112" width="8" height="8"/><rect x="240" y="112" width="8" height="8"/><rect x="256" y="112" width="8" height="8"/><rect x="272" y="112" width="8" height="8"/><rect x="288" y="112" width="8" height="8"/><rect x="304" y="112" width="8" height="8"/><rect x="320" y="112" width="8" height="8"/><rect x="336" y="112" width="8" height="8"/><rect x="352" y="112" width="8" height="8"/><rect x="368" y="112" width="8" height="8"/><rect x="384" y="112" width="8" height="8"/><rect x="400" y="112" width="8" height="8"/><rect x="432" y="112" width="8" height="8"/><rect x="464" y="112" width="8" height="8"/><rect x="8" y="120" width="8" height="8"/><rect x="24" y="120" width="8" height="8"/><rect x="40" y="120" width="8" height="8"/><rect x="56" y="120" width="8" height="8"/><rect x="72" y="120" width="8" height="8"/><rect x="88" y="120" width="8" height="8"/><rect x="104" y="120" width="8" height="8"/><rect x="120" y="120" width="8" height="8"/><rect x="136" y="120" width="8" height="8"/><rect x="152" y="120" width="8" height="8"/><rect x="168" y="120" width="8" height="8"/><rect x="184" y="120" width="8" height="8"/><rect x="216" y="120" width="8" height="8"/><rect x="248" y="120" width="8" height="8"/><rect x="280" y="120" width="8" height="8"/><rect x="0" y="128" width="8" height="8"/><rect x="8" y="128" width="8" height="8"/><rect x="16" y="128" width="8" height="8"/><rect x="24" y="128" width="8" height="8"/><rect x="32" y="128" width="8" height="8"/><rect x="40" y="128" width="8" height="8"/><rect x="48" y="128" width="8" height="8"/><rect x="64" y="128" width="8" height="8"/><rect x="72" y="128" width="8" height="8"/><rect x="80" y="128" width="8" height="8"/><rect x="96" y="128" width="8" height="8"/><rect x="104" y="128" width="8" height="8"/><rect x="112" y="128" width="8" height="8"/><rect x="128" y="128" width="8" height="8"/><rect x="144" y="128" width="8" height="8"/><rect x="160" y="128" width="8" height="8"/><rect x="176" y="128" width="8" height="8"/><rect x="192" y="128" width="8" height="8"/><rect x="208" y="128" width="8" height="8"/><rect x="224" y="128" width="8" height="8"/><rect x="240" y="128" width="8" height="8"/><rect x="256" y="128" width="8" height="8"/><rect x="272" y="128" width="8" height="8"/><rect x="288" y="128" width="8" height="8"/><rect x="304" y="128" width="8" height="8"/><rect x="320" y="128" width="8" height="8"/><rect x="336" y="128" width="8" height="8"/><rect x="352" y="128" width="8" height="8"/><rect x="368" y="128" width="8" height="8"/><rect x="384" y="128" width="8" height="8"/><rect x="400" y="128" width="8" height="8"/><rect x="416" y="128" width="8" height="8"/><rect x="432" y="128" width="8" height="8"/><rect x="448" y="128" width="8" height="8"/><rect x="464" y="128" width="8" height="8"/><rect x="8" y="136" width="8" height="8"/><rect x="24" y="136" width="8" height="8"/><rect x="40" y="136" width="8" height="8"/><rect x="56" y="136" width="8" height="8"/><rect x="72" y="136" width="8" height="8"/><rect x="88" y="136" width="8" height="8"/><rect x="104" y="136" width="8" height="8"/><rect x="120" y="136" width="8" height="8"/><rect x="136" y="136" width="8" height="8"/><rect x="152" y="136" width="8" height="8"/><rect x="168" y="136" width="8" height="8"/><rect x="184" y="136" width="8" height="8"/><rect x="200" y="136" width="8" height="8"/><rect x="216" y="136" width="8" height="8"/><rect x="232" y="136" width="8" height="8"/><rect x="248" y="136" width="8" height="8"/><rect x="264" y="136" width="8" height="8"/><rect x="296" y="136" width="8" height="8"/><rect x="328" y="136" width="8" height="8"/><rect x="360" y="136" width="8" height="8"/><rect x="0" y="144" width="8" height="8"/><rect x="16" y="144" width="8" height="8"/><rect x="24" y="144" width="8" height="8"/><rect x="32" y="144" width="8" height="8"/><rect x="48" y="144" width="8" height="8"/><rect x="56" y="144" width="8" height="8"/><rect x="64" y="144" width="8" height="8"/><rect x="80" y="144" width="8" height="8"/><rect x="88" y="144" width="8" height="8"/><rect x="96" y="144" width="8" height="8"/><rect x="112" y="144" width="8" height="8"/><rect x="128" y="144" width="8" height="8"/><rect x="144" y="144" width="8" height="8"/><rect x="160" y="144" width="8" height="8"/><rect x="176" y="144" width="8" height="8"/><rect x="192" y="144" width="8" height="8"/><rect x="208" y="144" width="8" height="8"/><rect x="224" y="144" width="8" height="8"/><rect x="240" y="144" width="8" height="8"/><rect x="256" y="144" width="8" height="8"/><rect x="272" y="144" width="8" height="8"/><rect x="288" y="144" width="8" height="8"/><rect x="304" y="144" width="8" height="8"/><rect x="320" y="144" width="8" height="8"/><rect x="336" y="144" width="8" height="8"/><rect x="352" y="144" width="8" height="8"/><rect x="368" y="144" width="8" height="8"/><rect x="384" y="144" width="8" height="8"/><rect x="400" y="144" width="8" height="8"/><rect x="416" y="144" width="8" height="8"/><rect x="432" y="144" width="8" height="8"/><rect x="448" y="144" width="8" height="8"/><rect x="464" y="144" width="8" height="8"/><rect x="8" y="152" width="8" height="8"/><rect x="24" y="152" width="8" height="8"/><rect x="40" y="152" width="8" height="8"/><rect x="56" y="152" width="8" height="8"/><rect x="72" y="152" width="8" height="8"/><rect x="88" y="152" width="8" height="8"/><rect x="104" y="152" width="8" height="8"/><rect x="120" y="152" width="8" height="8"/><rect x="136" y="152" width="8" height="8"/><rect x="152" y="152" width="8" height="8"/><rect x="168" y="152" width="8" height="8"/><rect x="184" y="152" width="8" height="8"/><rect x="200" y="152" width="8" height="8"/><rect x="216" y="152" width="8" height="8"/><rect x="248" y="152" width="8" height="8"/><rect x="280" y="152" width="8" height="8"/><rect x="312" y="152" width="8" height="8"/><rect x="0" y="160" width="8" height="8"/><rect x="8" y="160" width="8" height="8"/><rect x="16" y="160" width="8" height="8"/><rect x="24" y="160" width="8" height="8"/><rect x="32" y="160" width="8" height="8"/><rect x="40" y="160" width="8" height="8"/><rect x="48" y="160" width="8" height="8"/><rect x="56" y="160" width="8" height="8"/><rect x="64" y="160" width="8" height="8"/><rect x="72" y="160" width="8" height="8"/><rect x="80" y="160" width="8" height="8"/><rect x="96" y="160" width="8" height="8"/><rect x="104" y="160" width="8" height="8"/><rect x="112" y="160" width="8" height="8"/><rect x="128" y="160" width="8" height="8"/><rect x="136" y="160" width="8" height="8"/><rect x="144" y="160" width="8" height="8"/><rect x="160" y="160" width="8" height="8"/><rect x="168" y="160" width="8" height="8"/><rect x="176" y="160" width="8" height="8"/><rect x="192" y="160" width="8" height="8"/><rect x="208" y="160" width="8" height="8"/><rect x="224" y="160" width="8" height="8"/><rect x="240" y="160" width="8" height="8"/><rect x="256" y="160" width="8" height="8"/><rect x="272" y="160" width="8" height="8"/><rect x="288" y="160" width="8" height="8"/><rect x="304" y="160" width="8" height="8"/><rect x="320" y="160" width="8" height="8"/><rect x="336" y="160" width="8" height="8"/><rect x="352" y="160" width="8" height="8"/><rect x="368" y="160" width="8" height="8"/><rect x="384" y="160" width="8" height="8"/><rect x="400" y="160" width="8" height="8"/><rect x="416" y="160" width="8" height="8"/><rect x="432" y="160" width="8" height="8"/><rect x="448" y="160" width="8" height="8"/><rect x="464" y="160" width="8" height="8"/><rect x="8" y="168" width="8" height="8"/><rect x="24" y="168" width="8" height="8"/><rect x="40" y="168" width="8" height="8"/><rect x="56" y="168" width="8" height="8"/><rect x="72" y="168" width="8" height="8"/><rect x="88" y="168" width="8" height="8"/><rect x="104" y="168" width="8" height="8"/><rect x="120" y="168" width="8" height="8"/><rect x="136" y="168" width="8" height="8"/><rect x="152" y="168" width="8" height="8"/><rect x="168" y="168" width="8" height="8"/><rect x="184" y="168" width="8" height="8"/><rect x="200" y="168" width="8" height="8"/><rect x="216" y="168" width="8" height="8"/><rect x="232" y="168" width="8" height="8"/><rect x="248" y="168" width="8" height="8"/><rect x="264" y="168" width="8" height="8"/><rect x="280" y="168" width="8" height="8"/><rect x="296" y="168" width="8" height="8"/><rect x="328" y="168" width="8" height="8"/><rect x="360" y="168" width="8" height="8"/><rect x="392" y="168" width="8" height="8"/><rect x="424" y="168" width="8" height="8"/><rect x="0" y="176" width="8" height="8"/><rect x="8" y="176" width="8" height="8"/><rect x="16" y="176" width="8" height="8"/><rect x="24" y="176" width="8" height="8"/><rect x="32" y="176" width="8" height="8"/><rect x="40" y="176" width="8" height="8"/><rect x="48" y="176" width="8" height="8"/><rect x="56" y="176" width="8" height="8"/><rect x="64" y="176" width="8" height="8"/><rect x="80" y="176" width="8" height="8"/><rect x="88" y="176" width="8" height="8"/><rect x="96" y="176" width="8" height="8"/><rect x="112" y="176" width="8" height="8"/><rect x="120" y="176" width="8" height="8"/><rect x="128" y="176" width="8" height="8"/><rect x="144" y="176" width="8" height="8"/><rect x="152" y="176" width="8" height="8"/><rect x="160" y="176" width="8" height="8"/><rect x="176" y="176" width="8" height="8"/><rect x="192" y="176" width="8" height="8"/><rect x="208" y="176" width="8" height="8"/><rect x="224" y="176" width="8" height="8"/><rect x="240" y="176" width="8" height="8"/><rect x="256" y="176" width="8" height="8"/><rect x="272" y="176" width="8" height="8"/><rect x="288" y="176" width="8" height="8"/><rect x="304" y="176" width="8" height="8"/><rect x="320" y="176" width="8" height="8"/><rect x="336" y="176" width="8" height="8"/><rect x="352" y="176" width="8" height="8"/><rect x="368" y="176" width="8" height="8"/><rect x="384" y="176" width="8" height="8"/><rect x="400" y="176" width="8" height="8"/><rect x="416" y="176" width="8" height="8"/><rect x="432" y="176" width="8" height="8"/><rect x="448" y="176" width="8" height="8"/><rect x="464" y="176" width="8" height="8"/><rect x="8" y="184" width="8" height="8"/><rect x="24" y="184" width="8" height="8"/><rect x="40" y="184" width="8" height="8"/><rect x="56" y="184" width="8" height="8"/><rect x="72" y="184" width="8" height="8"/><rect x="88" y="184" width="8" height="8"/><rect x="104" y="184" width="8" height="8"/><rect x="120" y="184" width="8" height="8"/><rect x="136" y="184" width="8" height="8"/><rect x="152" y="184" width="8" height="8"/><rect x="168" y="184" width="8" height="8"/><rect x="184" y="184" width="8" height="8"/><rect x="200" y="184" width="8" height="8"/><rect x="216" y="184" width="8" height="8"/><rect x="232" y="184" width="8" height="8"/><rect x="248" y="184" width="8" height="8"/><rect x="264" y="184" width="8" height="8"/><rect x="280" y="184" width="8" height="8"/><rect x="312" y="184" width="8" height="8"/><rect x="344" y="184" width="8" height="8"/><rect x="376" y="184" width="8" height="8"/><rect x="0" y="192" width="8" height="8"/><rect x="8" y="192" width="8" height="8"/><rect x="16" y="192" width="8" height="8"/><rect x="24" y="192" width="8" height="8"/><rect x="32" y="192" width="8" height="8"/><rect x="40" y="192" width="8" height="8"/><rect x="48" y="192" width="8" height="8"/><rect x="56" y="192" width="8" height="8"/><rect x="64" y="192" width="8" height="8"/><rect x="72" y="192" width="8" height="8"/><rect x="80" y="192" width="8" height="8"/><rect x="88" y="192" width="8" height="8"/><rect x="96" y="192" width="8" height="8"/><rect x="104" y="192" width="8" height="8"/><rect x="112" y="192" width="8" height="8"/><rect x="120" y="192" width="8" height="8"/><rect x="128" y="192" width="8" height="8"/><rect x="136" y="192" width="8" height="8"/><rect x="144" y="192" width="8" height="8"/><rect x="160" y="192" width="8" height="8"/><rect x="168" y="192" width="8" height="8"/><rect x="176" y="192" width="8" height="8"/><rect x="192" y="192" width="8" height="8"/><rect x="200" y="192" width="8" height="8"/><rect x="208" y="192" width="8" height="8"/><rect x="224" y="192" width="8" height="8"/><rect x="232" y="192" width="8" height="8"/><rect x="240" y="192" width="8" height="8"/><rect x="256" y="192" width="8" height="8"/><rect x="272" y="192" width="8" height="8"/><rect x="288" y="192" width="8" height="8"/><rect x="304" y="192" width="8" height="8"/><rect x="320" y="192" width="8" height="8"/><rect x="336" y="192" width="8" height="8"/><rect x="352" y="192" width="8" height="8"/><rect x="368" y="192" width="8" height="8"/><rect x="384" y="192" width="8" height="8"/><rect x="400" y="192" width="8" height="8"/><rect x="416" y="192" width="8" height="8"/><rect x="432" y="192" width="8" height="8"/><rect x="448" y="192" width="8" height="8"/><rect x="464" y="192" width="8" height="8"/><rect x="0" y="200" width="8" height="8"/><rect x="8" y="200" width="8" height="8"/><rect x="24" y="200" width="8" height="8"/><rect x="40" y="200" width="8" height="8"/><rect x="56" y="200" width="8" height="8"/><rect x="72" y="200" width="8" height="8"/><rect x="88" y="200" width="8" height="8"/><rect x="104" y="200" width="8" height="8"/><rect x="120" y="200" width="8" height="8"/><rect x="136" y="200" width="8" height="8"/><rect x="152" y="200" width="8" height="8"/><rect x="168" y="200" width="8" height="8"/><rect x="184" y="200" width="8" height="8"/><rect x="200" y="200" width="8" height="8"/><rect x="216" y="200" width="8" height="8"/><rect x="232" y="200" width="8" height="8"/><rect x="248" y="200" width="8" height="8"/><rect x="264" y="200" width="8" height="8"/><rect x="280" y="200" width="8" height="8"/><rect x="296" y="200" width="8" height="8"/><rect x="312" y="200" width="8" height="8"/><rect x="328" y="200" width="8" height="8"/><rect x="344" y="200" width="8" height="8"/><rect x="360" y="200" width="8" height="8"/><rect x="392" y="200" width="8" height="8"/><rect x="424" y="200" width="8" height="8"/><rect x="456" y="200" width="8" height="8"/><rect x="0" y="208" width="8" height="8"/><rect x="8" y="208" width="8" height="8"/><rect x="16" y="208" width="8" height="8"/><rect x="24" y="208" width="8" height="8"/><rect x="32" y="208" width="8" height="8"/><rect x="40" y="208" width="8" height="8"/><rect x="48" y="208" width="8" height="8"/><rect x="56" y="208" width="8" height="8"/><rect x="64" y="208" width="8" height="8"/><rect x="72" y="208" width="8" height="8"/><rect x="80" y="208" width="8" height="8"/><rect x="88" y="208" width="8" height="8"/><rect x="96" y="208" width="8" height="8"/><rect x="112" y="208" width="8" height="8"/><rect x="120" y="208" width="8" height="8"/><rect x="128" y="208" width="8" height="8"/><rect x="144" y="208" width="8" height="8"/><rect x="152" y="208" width="8" height="8"/><rect x="160" y="208" width="8" height="8"/><rect x="176" y="208" width="8" height="8"/><rect x="184" y="208" width="8" height="8"/><rect x="192" y="208" width="8" height="8"/><rect x="208" y="208" width="8" height="8"/><rect x="224" y="208" width="8" height="8"/><rect x="240" y="208" width="8" height="8"/><rect x="256" y="208" width="8" height="8"/><rect x="272" y="208" width="8" height="8"/><rect x="288" y="208" width="8" height="8"/><rect x="304" y="208" width="8" height="8"/><rect x="320" y="208" width="8" height="8"/><rect x="336" y="208" width="8" height="8"/><rect x="352" y="208" width="8" height="8"/><rect x="368" y="208" width="8" height="8"/><rect x="384" y="208" width="8" height="8"/><rect x="400" y="208" width="8" height="8"/><rect x="416" y="208" width="8" height="8"/><rect x="432" y="208" width="8" height="8"/><rect x="448" y="208" width="8" height="8"/><rect x="464" y="208" width="8" height="8"/><rect x="8" y="216" width="8" height="8"/><rect x="24" y="216" width="8" height="8"/><rect x="40" y="216" width="8" height="8"/><rect x="56" y="216" width="8" height="8"/><rect x="72" y="216" width="8" height="8"/><rect x="88" y="216" width="8" height="8"/><rect x="104" y="216" width="8" height="8"/><rect x="120" y="216" width="8" height="8"/><rect x="136" y="216" width="8" height="8"/><rect x="152" y="216" width="8" height="8"/><rect x="168" y="216" width="8" height="8"/><rect x="184" y="216" width="8" height="8"/><rect x="200" y="216" width="8" height="8"/><rect x="216" y="216" width="8" height="8"/><rect x="232" y="216" width="8" height="8"/><rect x="248" y="216" width="8" height="8"/><rect x="264" y="216" width="8" height="8"/><rect x="280" y="216" width="8" height="8"/><rect x="296" y="216" width="8" height="8"/><rect x="312" y="216" width="8" height="8"/><rect x="344" y="216" width="8" height="8"/><rect x="376" y="216" width="8" height="8"/><rect x="408" y="216" width="8" height="8"/><rect x="440" y="216" width="8" height="8"/><rect x="0" y="224" width="8" height="8"/><rect x="8" y="224" width="8" height="8"/><rect x="16" y="224" width="8" height="8"/><rect x="24" y="224" width="8" height="8"/><rect x="32" y="224" width="8" height="8"/><rect x="40" y="224" width="8" height="8"/><rect x="48" y="224" width="8" height="8"/><rect x="56" y="224" width="8" height="8"/><rect x="64" y="224" width="8" height="8"/><rect x="72" y="224" width="8" height="8"/><rect x="80" y="224" width="8" height="8"/><rect x="88" y="224" width="8" height="8"/><rect x="96" y="224" width="8" height="8"/><rect x="104" y="224" width="8" height="8"/><rect x="112" y="224" width="8" height="8"/><rect x="120" y="224" width="8" height="8"/><rect x="128" y="224" width="8" height="8"/><rect x="136" y="224" width="8" height="8"/><rect x="144" y="224" width="8" height="8"/><rect x="152" y="224" width="8" height="8"/><rect x="160" y="224" width="8" height="8"/><rect x="168" y="224" width="8" height="8"/><rect x="176" y="224" width="8" height="8"/><rect x="192" y="224" width="8" height="8"/><rect x="200" y="224" width="8" height="8"/><rect x="208" y="224" width="8" height="8"/><rect x="224" y="224" width="8" height="8"/><rect x="232" y="224" width="8" height="8"/><rect x="240" y="224" width="8" height="8"/><rect x="256" y="224" width="8" height="8"/><rect x="264" y="224" width="8" height="8"/><rect x="272" y="224" width="8" height="8"/><rect x="288" y="224" width="8" height="8"/><rect x="304" y="224" width="8" height="8"/><rect x="320" y="224" width="8" height="8"/><rect x="336" y="224" width="8" height="8"/><rect x="352" y="224" width="8" height="8"/><rect x="368" y="224" width="8" height="8"/><rect x="384" y="224" width="8" height="8"/><rect x="400" y="224" width="8" height="8"/><rect x="416" y="224" width="8" height="8"/><rect x="432" y="224" width="8" height="8"/><rect x="448" y="224" width="8" height="8"/><rect x="464" y="224" width="8" height="8"/><rect x="0" y="232" width="8" height="8"/><rect x="8" y="232" width="8" height="8"/><rect x="24" y="232" width="8" height="8"/><rect x="32" y="232" width="8" height="8"/><rect x="40" y="232" width="8" height="8"/><rect x="56" y="232" width="8" height="8"/><rect x="64" y="232" width="8" height="8"/><rect x="72" y="232" width="8" height="8"/><rect x="88" y="232" width="8" height="8"/><rect x="104" y="232" width="8" height="8"/><rect x="120" y="232" width="8" height="8"/><rect x="136" y="232" width="8" height="8"/><rect x="152" y="232" width="8" height="8"/><rect x="168" y="232" width="8" height="8"/><rect x="184" y="232" width="8" height="8"/><rect x="200" y="232" width="8" height="8"/><rect x="216" y="232" width="8" height="8"/><rect x="232" y="232" width="8" height="8"/><rect x="248" y="232" width="8" height="8"/><rect x="264" y="232" width="8" height="8"/><rect x="280" y="232" width="8" height="8"/><rect x="296" y="232" width="8" height="8"/><rect x="312" y="232" width="8" height="8"/><rect x="328" y="232" width="8" height="8"/><rect x="344" y="232" width="8" height="8"/><rect x="360" y="232" width="8" height="8"/><rect x="376" y="232" width="8" height="8"/><rect x="392" y="232" width="8" height="8"/><rect x="424" y="232" width="8" height="8"/><rect x="456" y="232" width="8" height="8"/><rect x="0" y="240" width="8" height="8"/><rect x="8" y="240" width="8" height="8"/><rect x="16" y="240" width="8" height="8"/><rect x="24" y="240" width="8" height="8"/><rect x="32" y="240" width="8" height="8"/><rect x="40" y="240" width="8" height="8"/><rect x="48" y="240" width="8" height="8"/><rect x="56" y="240" width="8" height="8"/><rect x="64" y="240" width="8" height="8"/><rect x="72" y="240" width="8" height="8"/><rect x="80" y="240" width="8" height="8"/><rect x="88" y="240" width="8" height="8"/><rect x="96" y="240" width="8" height="8"/><rect x="104" y="240" width="8" height="8"/><rect x="112" y="240" width="8" height="8"/><rect x="120" y="240" width="8" height="8"/><rect x="128" y="240" width="8" height="8"/><rect x="136" y="240" width="8" height="8"/><rect x="144" y="240" width="8" height="8"/><rect x="152" y="240" width="8" height="8"/><rect x="160" y="240" width="8" height="8"/><rect x="176" y="240" width="8" height="8"/><rect x="184" y="240" width="8" height="8"/><rect x="192" y="240" width="8" height="8"/><rect x="208" y="240" width="8" height="8"/><rect x="216" y="240" width="8" height="8"/><rect x="224" y="240" width="8" height="8"/><rect x="240" y="240" width="8" height="8"/><rect x="248" y="240" width="8" height="8"/><rect x="256" y="240" width="8" height="8"/><rect x="272" y="240" width="8" height="8"/><rect x="288" y="240" width="8" height="8"/><rect x="304" y="240" width="8" height="8"/><rect x="320" y="240" width="8" height="8"/><rect x="336" y="240" width="8" height="8"/><rect x="352" y="240" width="8" height="8"/><rect x="368" y="240" width="8" height="8"/><rect x="384" y="240" width="8" height="8"/><rect x="400" y="240" width="8" height="8"/><rect x="416" y="240" width="8" height="8"/><rect x="432" y="240" width="8" height="8"/><rect x="448" y="240" width="8" height="8"/><rect x="464" y="240" width="8" height="8"/><rect x="8" y="248" width="8" height="8"/><rect x="16" y="248" width="8" height="8"/><rect x="24" y="248" width="8" height="8"/><rect x="40" y="248" width="8" height="8"/><rect x="48" y="248" width="8" height="8"/><rect x="56" y="248" width="8" height="8"/><rect x="72" y="248" width="8" height="8"/><rect x="88" y="248" width="8" height="8"/><rect x="104" y="248" width="8" height="8"/><rect x="120" y="248" width="8" height="8"/><rect x="136" y="248" width="8" height="8"/><rect x="152" y="248" width="8" height="8"/><rect x="168" y="248" width="8" height="8"/><rect x="184" y="248" width="8" height="8"/><rect x="200" y="248" width="8" height="8"/><rect x="216" y="248" width="8" height="8"/><rect x="232" y="248" width="8" height="8"/><rect x="248" y="248" width="8" height="8"/><rect x="264" y="248" width="8" height="8"/><rect x="280" y="248" width="8" height="8"/><rect x="296" y="248" width="8" height="8"/><rect x="312" y="248" width="8" height="8"/><rect x="328" y="248" width="8" height="8"/><rect x="344" y="248" width="8" height="8"/><rect x="360" y="248" width="8" height="8"/><rect x="376" y="248" width="8" height="8"/><rect x="408" y="248" width="8" height="8"/><rect x="440" y="248" width="8" height="8"/><rect x="472" y="248" width="8" height="8"/><rect x="0" y="256" width="8" height="8"/><rect x="8" y="256" width="8" height="8"/><rect x="16" y="256" width="8" height="8"/><rect x="24" y="256" width="8" height="8"/><rect x="32" y="256" width="8" height="8"/><rect x="40" y="256" width="8" height="8"/><rect x="48" y="256" width="8" height="8"/><rect x="56" y="256" width="8" height="8"/><rect x="64" y="256" width="8" height="8"/><rect x="72" y="256" width="8" height="8"/><rect x="80" y="256" width="8" height="8"/><rect x="88" y="256" width="8" height="8"/><rect x="96" y="256" width="8" height="8"/><rect x="104" y="256" width="8" height="8"/><rect x="112" y="256" width="8" height="8"/><rect x="120" y="256" width="8" height="8"/><rect x="128" y="256" width="8" height="8"/><rect x="136" y="256" width="8" height="8"/><rect x="144" y="256" width="8" height="8"/><rect x="152" y="256" width="8" height="8"/><rect x="160" y="256" width="8" height="8"/><rect x="168" y="256" width="8" height="8"/><rect x="176" y="256" width="8" height="8"/><rect x="184" y="256" width="8" height="8"/><rect x="192" y="256" width="8" height="8"/><rect x="200" y="256" width="8" height="8"/><rect x="208" y="256" width="8" height="8"/><rect x="216" y="256" width="8" height="8"/><rect x="224" y="256" width="8" height="8"/><rect x="232" y="256" width="8" height="8"/><rect x="240" y="256" width="8" height="8"/><rect x="256" y="256" width="8" height="8"/><rect x="264" y="256" width="8" height="8"/><rect x="272" y="256" width="8" height="8"/><rect x="288" y="256" width="8" height="8"/><rect x="296" y="256" width="8" height="8"/><rect x="304" y="256" width="8" height="8"/><rect x="320" y="256" width="8" height="8"/><rect x="328" y="256" width="8" height="8"/><rect x="336" y="256" width="8" height="8"/><rect x="352" y="256" width="8" height="8"/><rect x="368" y="256" width="8" height="8"/><rect x="384" y="256" width="8" height="8"/><rect x="400" y="256" width="8" height="8"/><rect x="416" y="256" width="8" height="8"/><rect x="432" y="256" width="8" height="8"/><rect x="448" y="256" width="8" height="8"/><rect x="464" y="256" width="8" height="8"/><rect x="0" y="264" width="8" height="8"/><rect x="8" y="264" width="8" height="8"/><rect x="16" y="264" width="8" height="8"/><rect x="24" y="264" width="8" height="8"/><rect x="32" y="264" width="8" height="8"/><rect x="40" y="264" width="8" height="8"/><rect x="56" y="264" width="8" height="8"/><rect x="64" y="264" width="8" height="8"/><rect x="72" y="264" width="8" height="8"/><rect x="88" y="264" width="8" height="8"/><rect x="96" y="264" width="8" height="8"/><rect x="104" y="264" width="8" height="8"/><rect x="120" y="264" width="8" height="8"/><rect x="128" y="264" width="8" height="8"/><rect x="136" y="264" width="8" height="8"/><rect x="152" y="264" width="8" height="8"/><rect x="168" y="264" width="8" height="8"/><rect x="184" y="264" width="8" height="8"/><rect x="200" y="264" width="8" height="8"/><rect x="216" y="264" width="8" height="8"/><rect x="232" y="264" width="8" height="8"/><rect x="248" y="264" width="8" height="8"/><rect x="264" y="264" width="8" height="8"/><rect x="280" y="264" width="8" height="8"/><rect x="296" y="264" width="8" height="8"/><rect x="312" y="264" width="8" height="8"/><rect x="328" y="264" width="8" height="8"/><rect x="344" y="264" width="8" height="8"/><rect x="360" y="264" width="8" height="8"/><rect x="376" y="264" width="8" height="8"/><rect x="392" y="264" width="8" height="8"/><rect x="408" y="264" width="8" height="8"/><rect x="424" y="264" width="8" height="8"/><rect x="440" y="264" width="8" height="8"/><rect x="456" y="264" width="8" height="8"/><rect x="0" y="272" width="8" height="8"/><rect x="8" y="272" width="8" height="8"/><rect x="16" y="272" width="8" height="8"/><rect x="24" y="272" width="8" height="8"/><rect x="32" y="272" width="8" height="8"/><rect x="40" y="272" width="8" height="8"/><rect x="48" y="272" width="8" height="8"/><rect x="56" y="272" width="8" height="8"/><rect x="64" y="272" width="8" height="8"/><rect x="72" y="272" width="8" height="8"/><rect x="80" y="272" width="8" height="8"/><rect x="88" y="272" width="8" height="8"/><rect x="96" y="272" width="8" height="8"/><rect x="104" y="272" width="8" height="8"/><rect x="112" y="272" width="8" height="8"/><rect x="120" y="272" width="8" height="8"/><rect x="128" y="272" width="8" height="8"/><rect x="136" y="272" width="8" height="8"/><rect x="144" y="272" width="8" height="8"/><rect x="152" y="272" width="8" height="8"/><rect x="160" y="272" width="8" height="8"/><rect x="168" y="272" width="8" height="8"/><rect x="176" y="272" width="8" height="8"/><rect x="184" y="272" width="8" height="8"/><rect x="192" y="272" width="8" height="8"/><rect x="208" y="272" width="8" height="8"/><rect x="216" y="272" width="8" height="8"/><rect x="224" y="272" width="8" height="8"/><rect x="240" y="272" width="8" height="8"/><rect x="248" y="272" width="8" height="8"/><rect x="256" y="272" width="8" height="8"/><rect x="272" y="272" width="8" height="8"/><rect x="280" y="272" width="8" height="8"/><rect x="288" y="272" width="8" height="8"/><rect x="304" y="272" width="8" height="8"/><rect x="320" y="272" width="8" height="8"/><rect x="336" y="272" width="8" height="8"/><rect x="352" y="272" width="8" height="8"/><rect x="368" y="272" width="8" height="8"/><rect x="384" y="272" width="8" height="8"/><rect x="400" y="272" width="8" height="8"/><rect x="416" y="272" width="8" height="8"/><rect x="432" y="272" width="8" height="8"/><rect x="448" y="272" width="8" height="8"/><rect x="464" y="272" width="8" height="8"/><rect x="0" y="280" width="8" height="8"/><rect x="8" y="280" width="8" height="8"/><rect x="16" y="280" width="8" height="8"/><rect x="24" y="280" width="8" height="8"/><rect x="40" y="280" width="8" height="8"/><rect x="48" y="280" width="8" height="8"/><rect x="56" y="280" width="8" height="8"/><rect x="72" y="280" width="8" height="8"/><rect x="80" y="280" width="8" height="8"/><rect x="88" y="280" width="8" height="8"/><rect x="104" y="280" width="8" height="8"/><rect x="120" y="280" width="8" height="8"/><rect x="136" y="280" width="8" height="8"/><rect x="152" y="280" width="8" height="8"/><rect x="168" y="280" width="8" height="8"/><rect x="184" y="280" width="8" height="8"/><rect x="200" y="280" width="8" height="8"/><rect x="216" y="280" width="8" height="8"/><rect x="232" y="280" width="8" height="8"/><rect x="248" y="280" width="8" height="8"/><rect x="264" y="280" width="8" height="8"/><rect x="280" y="280" width="8" height="8"/><rect x="296" y="280" width="8" height="8"/><rect x="312" y="280" width="8" height="8"/><rect x="328" y="280" width="8" height="8"/><rect x="344" y="280" width="8" height="8"/><rect x="360" y="280" width="8" height="8"/><rect x="376" y="280" width="8" height="8"/><rect x="392" y="280" width="8" height="8"/><rect x="408" y="280" width="8" height="8"/><rect x="440" y="280" width="8" height="8"/><rect x="472" y="280" width="8" height="8"/><rect x="0" y="288" width="8" height="8"/><rect x="8" y="288" width="8" height="8"/><rect x="16" y="288" width="8" height="8"/><rect x="24" y="288" width="8" height="8"/><rect x="32" y="288" width="8" height="8"/><rect x="40" y="288" width="8" height="8"/><rect x="48" y="288" width="8" height="8"/><rect x="56" y="288" width="8" height="8"/><rect x="64" y="288" width="8" height="8"/><rect x="72" y="288" width="8" height="8"/><rect x="80" y="288" width="8" height="8"/><rect x="88" y="288" width="8" height="8"/><rect x="96" y="288" width="8" height="8"/><rect x="104" y="288" width="8" height="8"/><rect x="112" y="288" width="8" height="8"/><rect x="120" y="288" width="8" height="8"/><rect x="128" y="288" width="8" height="8"/><rect x="136" y="288" width="8" height="8"/><rect x="144" y="288" width="8" height="8"/><rect x="152" y="288" width="8" height="8"/><rect x="160" y="288" width="8" height="8"/><rect x="168" y="288" width="8" height="8"/><rect x="176" y="288" width="8" height="8"/><rect x="184" y="288" width="8" height="8"/><rect x="192" y="288" width="8" height="8"/><rect x="200" y="288" width="8" height="8"/><rect x="208" y="288" width="8" height="8"/><rect x="216" y="288" width="8" height="8"/><rect x="224" y="288" width="8" height="8"/><rect x="232" y="288" width="8" height="8"/><rect x="240" y="288" width="8" height="8"/><rect x="248" y="288" width="8" height="8"/><rect x="256" y="288" width="8" height="8"/><rect x="264" y="288" width="8" height="8"/><rect x="272" y="288" width="8" height="8"/><rect x="288" y="288" width="8" height="8"/><rect x="296" y="288" width="8" height="8"/><rect x="304" y="288" width="8" height="8"/><rect x="320" y="288" width="8" height="8"/><rect x="328" y="288" width="8" height="8"/><rect x="336" y="288" width="8" height="8"/><rect x="352" y="288" width="8" height="8"/><rect x="360" y="288" width="8" height="8"/><rect x="368" y="288" width="8" height="8"/><rect x="384" y="288" width="8" height="8"/><rect x="400" y="288" width="8" height="8"/><rect x="416" y="288" width="8" height="8"/><rect x="432" y="288" width="8" height="8"/><rect x="448" y="288" width="8" height="8"/><rect x="464" y="288" width="8" height="8"/><rect x="0" y="296" width="8" height="8"/><rect x="8" y="296" width="8" height="8"/><rect x="16" y="296" width="8" height="8"/><rect x="24" y="296" width="8" height="8"/><rect x="32" y="296" width="8" height="8"/><rect x="40" y="296" width="8" height="8"/><rect x="48" y="296" width="8" height="8"/><rect x="56" y="296" width="8" height="8"/><rect x="64" y="296" width="8" height="8"/><rect x="72" y="296" width="8" height="8"/><rect x="88" y="296" width="8" height="8"/><rect x="96" y="296" width="8" height="8"/><rect x="104" y="296" width="8" height="8"/><rect x="120" y="296" width="8" height="8"/><rect x="128" y="296" width="8" height="8"/><rect x="136" y="296" width="8" height="8"/><rect x="152" y="296" width="8" height="8"/><rect x="160" y="296" width="8" height="8"/><rect x="168" y="296" width="8" height="8"/><rect x="184" y="296" width="8" height="8"/><rect x="200" y="296" width="8" height="8"/><rect x="216" y="296" width="8" height="8"/><rect x="232" y="296" width="8" height="8"/><rect x="248" y="296" width="8" height="8"/><rect x="264" y="296" width="8" height="8"/><rect x="280" y="296" width="8" height="8"/><rect x="296" y="296" width="8" height="8"/><rect x="312" y="296" width="8" height="8"/><rect x="328" y="296" width="8" height="8"/><rect x="344" y="296" width="8" height="8"/><rect x="360" y="296" width="8" height="8"/><rect x="376" y="296" width="8" height="8"/><rect x="392" y="296" width="8" height="8"/><rect x="408" y="296" width="8" height="8"/><rect x="424" y="296" width="8" height="8"/><rect x="440" y="296" width="8" height="8"/><rect x="456" y="296" width="8" height="8"/><rect x="472" y="296" width="8" height="8"/><rect x="0" y="304" width="8" height="8"/><rect x="8" y="304" width="8" height="8"/><rect x="16" y="304" width="8" height="8"/><rect x="24" y="304" width="8" height="8"/><rect x="32" y="304" width="8" height="8"/><rect x="40" y="304" width="8" height="8"/><rect x="48" y="304" width="8" height="8"/><rect x="56" y="304" width="8" height="8"/><rect x="64" y="304" width="8" height="8"/><rect x="72" y="304" width="8" height="8"/><rect x="80" y="304" width="8" height="8"/><rect x="88" y="304" width="8" height="8"/><rect x="96" y="304" width="8" height="8"/><rect x="104" y="304" width="8" height="8"/><rect x="112" y="304" width="8" height="8"/><rect x="120" y="304" width="8" height="8"/><rect x="128" y="304" width="8" height="8"/><rect x="136" y="304" width="8" height="8"/><rect x="144" y="304" width="8" height="8"/><rect x="152" y="304" width="8" height="8"/><rect x="160" y="304" width="8" height="8"/><rect x="168" y="304" width="8" height="8"/><rect x="176" y="304" width="8" height="8"/><rect x="184" y="304" width="8" height="8"/><rect x="192" y="304" width="8" height="8"/><rect x="200" y="304" width="8" height="8"/><rect x="208" y="304" width="8" height="8"/><rect x="216" y="304" width="8" height="8"/><rect x="224" y="304" width="8" height="8"/><rect x="232" y="304" width="8" height="8"/><rect x="240" y="304" width="8" height="8"/><rect x="248" y="304" width="8" height="8"/><rect x="256" y="304" width="8" height="8"/><rect x="272" y="304" width="8" height="8"/><rect x="280" y="304" width="8" height="8"/><rect x="288" y="304" width="8" height="8"/><rect x="304" y="304" width="8" height="8"/><rect x="312" y="304" width="8" height="8"/><rect x="320" y="304" width="8" height="8"/><rect x="336" y="304" width="8" height="8"/><rect x="344" y="304" width="8" height="8"/><rect x="352" y="304" width="8" height="8"/><rect x="368" y="304" width="8" height="8"/><rect x="384" y="304" width="8" height="8"/><rect x="400" y="304" width="8" height="8"/><rect x="416" y="304" width="8" height="8"/><rect x="432" y="304" width="8" height="8"/><rect x="448" y="304" width="8" height="8"/><rect x="464" y="304" width="8" height="8"/><rect x="0" y="312" width="8" height="8"/><rect x="8" y="312" width="8" height="8"/><rect x="16" y="312" width="8" height="8"/><rect x="24" y="312" width="8" height="8"/><rect x="32" y="312" width="8" height="8"/><rect x="40" y="312" width="8" height="8"/><rect x="48" y="312" width="8" height="8"/><rect x="56" y="312" width="8" height="8"/><rect x="72" y="312" width="8" height="8"/><rect x="80" y="312" width="8" height="8"/><rect x="88" y="312" width="8" height="8"/><rect x="104" y="312" width="8" height="8"/><rect x="112" y="312" width="8" height="8"/><rect x="120" y="312" width="8" height="8"/><rect x="136" y="312" width="8" height="8"/><rect x="144" y="312" width="8" height="8"/><rect x="152" y="312" width="8" height="8"/><rect x="168" y="312" width="8" height="8"/><rect x="184" y="312" width="8" height="8"/><rect x="200" y="312" width="8" height="8"/><rect x="216" y="312" width="8" height="8"/><rect x="232" y="312" width="8" height="8"/><rect x="248" y="312" width="8" height="8"/><rect x="264" y="312" width="8" height="8"/><rect x="280" y="312" width="8" height="8"/><rect x="296" y="312" width="8" height="8"/><rect x="312" y="312" width="8" height="8"/><rect x="328" y="312" width="8" height="8"/><rect x="344" y="312" width="8" height="8"/><rect x="360" y="312" width="8" height="8"/><rect x="376" y="312" width="8" height="8"/><rect x="392" y="312" width="8" height="8"/><rect x="408" y="312" width="8" height="8"/><rect x="424" y="312" width="8" height="8"/><rect x="440" y="312" width="8" height="8"/><rect x="456" y="312" width="8" height="8"/><rect x="472" y="312" width="8" height="8"/></g></svg>