<svg xmlns="http://www.w3.org/2000/svg" viewBox="0 0 300 300"><defs><style>.a{isolation:isolate;}.b{mix-blend-mode:multiply;}.c{fill:#babad6;stroke-miterlimit:10;}.c,.d,.e,.f{stroke:#fff;}.d{fill:#f1f1f1;}.d,.e{fill-opacity:0.25;}.d,.e,.f{stroke-linecap:round;stroke-linejoin:round;stroke-width:2px;}.e{fill:#8086ed;}.f{fill:none;}</style></defs><g class="a"><g class="b"><path class="c" d="M165.81,220.76a88.86,88.86,0,0,0-53.36-47.46l32.73-11.25Z"/></g><polygon class="d" points="165.89 95.37 165.81 220.76 145.18 162.05 112.45 173.3 165.89 95.37 165.89 95.37"/><g class="b"><path class="c" d="M165.81,220.76a88.88,88.88,0,0,1,53.42-47.39l-32.72-11.29Z"/></g><polygon class="e" points="165.89 95.37 165.81 220.76 186.51 162.08 219.22 173.38 165.89 95.37 165.89 95.37"/><circle class="f" cx="163.14" cy="152.73" r="109.29"/><path class="f" d="M112.45,128a18.11,18.11,0,0,1-18.11,18.11H34.09a21.23,21.23,0,0,1-2.49-42.31,30.81,30.81,0,0,1,59,6.49A18.1,18.1,0,0,1,112.45,128Z"/><path class="f" d="M277.45,84.42a17,17,0,0,1-17,17H211.32a20,20,0,1,1,0-39.94c.56,0,1.12,0,1.67.07a25.81,25.81,0,0,1,46.08,5.85c.45,0,.89-.06,1.34-.06A17,17,0,0,1,277.45,84.42Z"/><path class="f" d="M191.34,230.5a19,19,0,0,0,19,18.95h54.61a22.22,22.22,0,1,0,0-44.43c-.62,0-1.24,0-1.86.08a28.71,28.71,0,0,0-51.26,6.51,14.72,14.72,0,0,0-1.49-.07A19,19,0,0,0,191.34,230.5Z"/><polygon class="f" points="234.4 128.6 237.28 134.83 243.51 137.71 237.28 140.59 234.4 146.82 231.52 140.59 225.29 137.71 231.52 134.83 234.4 128.6"/><polygon class="f" points="112.45 198.09 117.51 209.02 128.44 214.08 117.51 219.13 112.45 230.06 107.4 219.13 96.47 214.08 107.4 209.02 112.45 198.09"/><polygon class="f" points="127.79 74.72 132.34 84.57 142.19 89.12 132.34 93.67 127.79 103.52 123.24 93.67 113.39 89.12 123.24 84.57 127.79 74.72"/></g></svg>