<svg xmlns="http://www.w3.org/2000/svg" viewBox="0 0 1528.5 431.46"><defs><style>.a{fill:#1b1464;}.b{fill:#8086ed;}.c{fill:#535299;}</style></defs><path class="a" d="M427.12,327l95.7-247.21,58.67-8.55L682,327H615.3L599,278.32l-91.5,4.35L492.71,327Zm97.44-95.34,58-3.68L554,143.51Z"/><path class="a" d="M835.76,134.45v65.64a52.78,52.78,0,0,0-13.24-3,55.76,55.76,0,0,0-6-.3c-14.11,0-26.21,4.76-34.82,12.93C772.91,218,765,229.9,765,243.88V327H705.81V138.2L763.94,129V156.9a94.6,94.6,0,0,1,61.67-23A99.94,99.94,0,0,1,835.76,134.45Z"/><path class="a" d="M992.05,134.45v65.64a52.78,52.78,0,0,0-13.24-3,55.76,55.76,0,0,0-6-.3c-14.11,0-26.21,4.76-34.82,12.93-8.82,8.31-16.77,20.2-16.77,34.18V327H862.1V138.2L920.23,129V156.9a94.6,94.6,0,0,1,61.67-23A99.94,99.94,0,0,1,992.05,134.45Z"/><path class="a" d="M1114.79,326.7c-57.71,0-104.66-43.79-104.66-98.54s46.95-98.53,104.66-98.53c58.07,0,104.67,44.16,104.67,98.53S1172.86,326.7,1114.79,326.7Zm0-51.82c26.53,0,45.17-19.35,45.17-46.72s-18.64-47.08-45.17-47.08-45.16,19.71-45.16,47.08S1088.27,274.88,1114.79,274.88Z"/><path class="a" d="M1345.44,163.85l44.62-5.83,29,82.65,33.56-109.47,75.87-10.55-75,207.05H1401l-33.07-86.14L1342.44,327h-51.92l-65.73-185.43,67.44-8.87,27.66,106.75Z"/><path class="a" d="M182,431.46C147.62,354.94,81.51,295.19,0,268.29L111.52,229.5Z"/><polygon class="b" points="181.96 0.01 181.96 431.46 111.52 229.5 0 268.29 181.95 0 181.96 0.01"/><path class="a" d="M182,431.46c34.34-76.52,100.45-136.27,182-163.17L252.4,229.5Z"/><polygon class="c" points="181.96 0.01 181.96 431.46 252.4 229.5 363.92 268.29 181.97 0 181.96 0.01"/></svg>