<svg xmlns="http://www.w3.org/2000/svg" xmlns:xlink="http://www.w3.org/1999/xlink" viewBox="0 0 126.82 150.59"><defs><style>.a{isolation:isolate;}.b{fill:url(#a);}.c{fill:#fff;}.d{fill:url(#b);}.e{mix-blend-mode:multiply;fill:url(#c);}</style><linearGradient id="a" x1="63.41" y1="145.76" x2="63.41" y2="72.29" gradientUnits="userSpaceOnUse"><stop offset="0" stop-color="#8086ed" stop-opacity="0"/><stop offset="0.07" stop-color="#8086ed" stop-opacity="0.06"/><stop offset="0.26" stop-color="#8086ed" stop-opacity="0.22"/><stop offset="0.45" stop-color="#8086ed" stop-opacity="0.34"/><stop offset="0.64" stop-color="#8086ed" stop-opacity="0.43"/><stop offset="0.82" stop-color="#8086ed" stop-opacity="0.48"/><stop offset="1" stop-color="#8086ed" stop-opacity="0.5"/></linearGradient><linearGradient id="b" x1="95.11" y1="150.59" x2="95.11" gradientUnits="userSpaceOnUse"><stop offset="0.23" stop-color="#fff"/><stop offset="0.48" stop-color="#f8f8f9"/><stop offset="0.84" stop-color="#e5e5e7"/><stop offset="1" stop-color="#dadade"/></linearGradient><linearGradient id="c" x1="95.11" y1="150.59" x2="95.11" gradientUnits="userSpaceOnUse"><stop offset="0.53" stop-color="#fff" stop-opacity="0"/><stop offset="0.62" stop-color="#fff" stop-opacity="0.01"/><stop offset="0.69" stop-color="#fdfdfd" stop-opacity="0.05"/><stop offset="0.75" stop-color="#fafafb" stop-opacity="0.12"/><stop offset="0.8" stop-color="#f7f7f8" stop-opacity="0.22"/><stop offset="0.85" stop-color="#f2f2f3" stop-opacity="0.35"/><stop offset="0.9" stop-color="#ececee" stop-opacity="0.51"/><stop offset="0.94" stop-color="#e5e5e8" stop-opacity="0.69"/><stop offset="0.98" stop-color="#dedee1" stop-opacity="0.9"/><stop offset="1" stop-color="#dadade"/></linearGradient></defs><g class="a"><path class="b" d="M126.82,93.48h0v0a106,106,0,0,0-63.29,56.85l-.07.18a.07.07,0,0,0,0,.06.07.07,0,0,0,0-.06h0A106,106,0,0,0,0,93.5v0H0L27.55,52.93h0L63.42,0,99.3,52.92h0Z"/><path class="c" d="M126.81,93.48,87.59,84.8,63.43,150.53a.07.07,0,0,0,0,.06V0L99.29,52.92h0Z"/><path class="c" d="M63.41,0V150.59a.13.13,0,0,0,0-.06L39.23,84.8,0,93.48,27.54,52.93h0Z"/><path class="d" d="M126.81,93.48,87.59,84.8,63.43,150.53a.07.07,0,0,0,0,.06V0L99.29,52.92h0Z"/><path class="e" d="M126.81,93.48,87.59,84.8,63.43,150.53a.07.07,0,0,0,0,.06V0L99.29,52.92h0Z"/></g></svg>