<svg xmlns="http://www.w3.org/2000/svg" xmlns:xlink="http://www.w3.org/1999/xlink" viewBox="0 0 500 142"><defs><style>.a{isolation:isolate;}.b{fill:#fff;}.c{fill:url(#a);}.d{fill:url(#b);}.e{mix-blend-mode:multiply;fill:url(#c);}</style><linearGradient id="a" x1="59.79" y1="137.45" x2="59.79" y2="68.17" gradientUnits="userSpaceOnUse"><stop offset="0" stop-color="#8086ed" stop-opacity="0"/><stop offset="0.07" stop-color="#8086ed" stop-opacity="0.06"/><stop offset="0.26" stop-color="#8086ed" stop-opacity="0.22"/><stop offset="0.45" stop-color="#8086ed" stop-opacity="0.34"/><stop offset="0.64" stop-color="#8086ed" stop-opacity="0.43"/><stop offset="0.82" stop-color="#8086ed" stop-opacity="0.48"/><stop offset="1" stop-color="#8086ed" stop-opacity="0.5"/></linearGradient><linearGradient id="b" x1="89.69" y1="142" x2="89.69" gradientUnits="userSpaceOnUse"><stop offset="0.23" stop-color="#fff"/><stop offset="0.48" stop-color="#f8f8f9"/><stop offset="0.84" stop-color="#e5e5e7"/><stop offset="1" stop-color="#dadade"/></linearGradient><linearGradient id="c" x1="89.69" y1="142" x2="89.69" gradientUnits="userSpaceOnUse"><stop offset="0.53" stop-color="#fff" stop-opacity="0"/><stop offset="0.62" stop-color="#fff" stop-opacity="0.01"/><stop offset="0.69" stop-color="#fdfdfd" stop-opacity="0.05"/><stop offset="0.75" stop-color="#fafafb" stop-opacity="0.12"/><stop offset="0.8" stop-color="#f7f7f8" stop-opacity="0.22"/><stop offset="0.85" stop-color="#f2f2f3" stop-opacity="0.35"/><stop offset="0.9" stop-color="#ececee" stop-opacity="0.51"/><stop offset="0.94" stop-color="#e5e5e8" stop-opacity="0.69"/><stop offset="0.98" stop-color="#dedee1" stop-opacity="0.9"/><stop offset="1" stop-color="#dadade"/></linearGradient></defs><g class="a"><path class="b" d="M139.71,107,171,26.11l19.19-2.8L223.08,107H201.27L196,91,166,92.47,161.17,107Zm31.88-31.19,19-1.2-9.33-27.65Z"/><path class="b" d="M273.39,44V65.45a17.11,17.11,0,0,0-4.33-1,18,18,0,0,0-2-.1,16.25,16.25,0,0,0-11.39,4.23c-2.88,2.72-5.48,6.61-5.48,11.18V107H230.88V45.21l19-3v9.14a30.93,30.93,0,0,1,20.18-7.52A33.09,33.09,0,0,1,273.39,44Z"/><path class="b" d="M324.51,44V65.45a17.11,17.11,0,0,0-4.33-1,17.93,17.93,0,0,0-1.95-.1,16.22,16.22,0,0,0-11.39,4.23c-2.89,2.72-5.49,6.61-5.49,11.18V107H282V45.21l19-3v9.14a30.92,30.92,0,0,1,20.17-7.52A32.94,32.94,0,0,1,324.51,44Z"/><path class="b" d="M364.66,106.87c-18.87,0-34.23-14.33-34.23-32.23S345.79,42.4,364.66,42.4,398.9,56.85,398.9,74.64,383.66,106.87,364.66,106.87Zm0-17c8.68,0,14.78-6.33,14.78-15.28s-6.1-15.4-14.78-15.4-14.77,6.44-14.77,15.4S356,89.92,364.66,89.92Z"/><path class="b" d="M440.11,53.6l14.6-1.91,9.49,27,11-35.81L500,39.47,475.44,107.2H458.28L447.46,79l-8.33,28h-17L400.64,46.31l22.07-2.9,9,34.92Z"/><path class="c" d="M119.59,88.15h0v0a100,100,0,0,0-59.68,53.61l-.07.17a.09.09,0,0,0,0,.05.06.06,0,0,0,0-.05h0A99.94,99.94,0,0,0,0,88.17v0H0L26,49.91h0L59.81,0,93.64,49.9h0Z"/><path class="b" d="M119.58,88.15,82.6,80,59.81,142a.09.09,0,0,0,0,.05V0L93.63,49.9h0Z"/><path class="b" d="M59.8,0V142a.06.06,0,0,0,0-.05L37,80,0,88.15,26,49.91h0Z"/><path class="d" d="M119.58,88.15,82.6,80,59.81,142a.09.09,0,0,0,0,.05V0L93.63,49.9h0Z"/><path class="e" d="M119.58,88.15,82.6,80,59.81,142a.09.09,0,0,0,0,.05V0L93.63,49.9h0Z"/></g></svg>