<svg xmlns="http://www.w3.org/2000/svg" viewBox="0 0 110.58 84.3"><defs><style>.a{fill:#fff;}</style></defs><path class="a" d="M93.65,7a91.2,91.2,0,0,0-22.8-7A66.25,66.25,0,0,0,68,6a82.55,82.55,0,0,0-25.3,0,56,56,0,0,0-3-6,86.3,86.3,0,0,0-22.8,7.1C2.45,28.6-1.45,49.5.45,70.2a90,90,0,0,0,28,14.1,65,65,0,0,0,6-9.7,54.1,54.1,0,0,1-9.4-4.5c.8-.6,1.5-1.2,2.3-1.8a65.37,65.37,0,0,0,56,0c.8.6,1.5,1.2,2.3,1.8a55,55,0,0,1-9.5,4.5,65,65,0,0,0,6,9.7,91.11,91.11,0,0,0,28-14.1C112.35,46.2,106.15,25.4,93.65,7ZM36.85,57.4c-5.5,0-9.9-5-9.9-11.1s4.4-11.2,9.9-11.2,10,5,10,11.2S42.45,57.4,36.85,57.4Zm36.8,0c-5.5,0-9.9-5-9.9-11.1s4.4-11.2,9.9-11.2,10,5,9.9,11.2S79.15,57.4,73.65,57.4Z"/></svg>