<svg xmlns="http://www.w3.org/2000/svg" viewBox="0 0 94.24 94.24"><defs><style>.a,.d,.f{fill:#12122d;}.a,.b,.c{stroke:#7d82e7;}.a,.b,.c,.e,.f{stroke-linecap:round;stroke-linejoin:round;}.b,.c{fill:#7d82e7;}.b{fill-opacity:0.2;}.e{fill:none;stroke:#fff;}.f{stroke:#ffb2a3;}.g{fill:#ffb2a3;}</style></defs><circle class="a" cx="49.3" cy="49.02" r="37.88"/><path class="b" d="M34.55,46.3v5.45c0,1.76-6.65,3.18-14.85,3.18S4.86,53.51,4.86,51.75V46.3Z"/><ellipse class="c" cx="19.71" cy="46.3" rx="14.84" ry="3.17"/><path class="b" d="M93.74,46.3v5.45c0,1.76-6.65,3.18-14.85,3.18s-14.84-1.42-14.84-3.18V46.3Z"/><ellipse class="c" cx="78.9" cy="46.3" rx="14.84" ry="3.17"/><path class="b" d="M64.05,71.75V77.2c0,1.76-6.65,3.18-14.85,3.18S34.36,79,34.36,77.2V71.75Z"/><ellipse class="c" cx="49.21" cy="71.75" rx="14.84" ry="3.17"/><path class="b" d="M64.05,21.64v5.45c0,1.76-6.65,3.18-14.85,3.18s-14.84-1.42-14.84-3.18V21.64Z"/><ellipse class="c" cx="49.21" cy="21.64" rx="14.84" ry="3.17"/><ellipse class="d" cx="49.21" cy="21.64" rx="8.94" ry="1.91"/><ellipse class="d" cx="78.9" cy="46.3" rx="8.94" ry="1.91"/><ellipse class="d" cx="49.21" cy="71.75" rx="8.94" ry="1.91"/><ellipse class="d" cx="19.71" cy="46.3" rx="8.94" ry="1.91"/><path class="e" d="M70.49,30.18a28.5,28.5,0,0,1,4.68,7.25"/><path class="e" d="M28.15,30.18a28.77,28.77,0,0,0-4.68,7.25"/><path class="e" d="M70.49,68.33a28.5,28.5,0,0,0,4.68-7.25"/><path class="e" d="M28.15,68.33a28.77,28.77,0,0,1-4.68-7.25"/><circle class="f" cx="12.74" cy="19.57" r="12.24"/><path class="g" d="M12.88,24.87a5.83,5.83,0,0,1-1.78-.25A3.84,3.84,0,0,1,9.89,24a2.73,2.73,0,0,1-.72-.86,2.11,2.11,0,0,1-.25-.9A.3.3,0,0,1,9,22a.29.29,0,0,1,.21-.09h1.54A.5.5,0,0,1,11,22a.6.6,0,0,1,.18.22,1,1,0,0,0,.36.51,1.51,1.51,0,0,0,.6.28,3.41,3.41,0,0,0,.73.07,1.92,1.92,0,0,0,1.23-.36,1.23,1.23,0,0,0,.45-1,1.11,1.11,0,0,0-.42-1A2.11,2.11,0,0,0,13,20.42h-1.5a.34.34,0,0,1-.33-.34V19.4a.62.62,0,0,1,.06-.29.56.56,0,0,1,.13-.16l2.41-2.21h-4a.37.37,0,0,1-.25-.1.37.37,0,0,1-.1-.24V15.28a.36.36,0,0,1,.1-.25.33.33,0,0,1,.25-.1H16a.34.34,0,0,1,.35.35v1a.53.53,0,0,1-.06.26.36.36,0,0,1-.14.16L13.86,19,14,19a4.19,4.19,0,0,1,1.47.4,2.52,2.52,0,0,1,1,.92,2.87,2.87,0,0,1,.37,1.5,2.68,2.68,0,0,1-.52,1.64,3.38,3.38,0,0,1-1.41,1.06A5.47,5.47,0,0,1,12.88,24.87Z"/></svg>