<svg xmlns="http://www.w3.org/2000/svg" viewBox="0 0 92.91 92.91"><defs><style>.a,.b,.d,.h{fill:#12122d;}.a,.b,.c,.f{stroke:#7d82e7;}.a,.f{stroke-miterlimit:10;}.b,.c,.h{stroke-linecap:round;stroke-linejoin:round;}.c,.e{fill:#7d82e7;}.e{opacity:0.27;}.f{fill:none;}.g{fill:#fff;}.h{stroke:#ffb2a3;}.i{fill:#ffb2a3;}</style></defs><circle class="a" cx="49.3" cy="45.97" r="37.88"/><path class="b" d="M32,52.2v5.45c0,1.76-6.65,3.18-14.85,3.18S2.26,59.41,2.26,57.65V52.2Z"/><ellipse class="c" cx="17.1" cy="52.21" rx="14.84" ry="3.17"/><ellipse class="d" cx="17.1" cy="52.21" rx="8.94" ry="1.91"/><path class="b" d="M58.45,30.28v5.45c0,1.76-6.65,3.18-14.85,3.18s-14.84-1.42-14.84-3.18V30.28Z"/><ellipse class="c" cx="43.6" cy="30.28" rx="14.84" ry="3.17"/><ellipse class="d" cx="43.61" cy="30.28" rx="8.94" ry="1.91"/><path class="d" d="M78.92,31.77c0-4.06-4.67-6.31-9.5-6.31-20,0-47.11,20.13-47.11,32,0,3.29,3,5.61,8,5.61C43.8,63.11,78.92,47.38,78.92,31.77Z"/><path class="e" d="M78.92,31.77c0-4.06-4.67-6.31-9.5-6.31-20,0-47.11,20.13-47.11,32,0,3.29,3,5.61,8,5.61C43.8,63.11,78.92,47.38,78.92,31.77Z"/><path class="f" d="M78.92,31.77c0-4.06-4.67-6.31-9.5-6.31-20,0-47.11,20.13-47.11,32,0,3.29,3,5.61,8,5.61C43.8,63.11,78.92,47.38,78.92,31.77Z"/><path class="b" d="M67.86,60.83v5.45c0,1.76-6.65,3.18-14.85,3.18S38.17,68,38.17,66.28V60.83Z"/><ellipse class="c" cx="53.02" cy="60.83" rx="14.84" ry="3.17"/><ellipse class="d" cx="52.55" cy="60.83" rx="8.94" ry="1.91"/><path class="b" d="M92.41,37.93v5.45c0,1.76-6.65,3.18-14.85,3.18s-14.84-1.42-14.84-3.18V37.93Z"/><ellipse class="c" cx="77.57" cy="37.93" rx="14.84" ry="3.17"/><ellipse class="d" cx="77.57" cy="37.93" rx="8.94" ry="1.91"/><path class="g" d="M55.08,13.31a1.61,1.61,0,0,1-1.3-.66L49.3,6.45l-4.48,6.2a1.59,1.59,0,0,1-1.29.66,1.64,1.64,0,0,1-.94-.3,1.62,1.62,0,0,1-.36-2.24l5.78-8a.67.67,0,0,1,.17-.17.85.85,0,0,1,.19-.19l.05,0,0,0a1.33,1.33,0,0,1,.23-.1,1.6,1.6,0,0,1,.3-.11h.31l.1.5v-.5h.19a1.67,1.67,0,0,1,.24.08l.29.13h0l.09.06a.8.8,0,0,1,.16.16,1.13,1.13,0,0,1,.19.19l5.77,8A1.63,1.63,0,0,1,56.66,12,1.59,1.59,0,0,1,56,13,1.61,1.61,0,0,1,55.08,13.31Z"/><path class="d" d="M49.41,2.64h.1l.18.07a.88.88,0,0,1,.22.1l0,0s.07.08.11.12.1.07.13.12l5.78,8a1.1,1.1,0,0,1-.25,1.53,1.09,1.09,0,0,1-.64.21,1.12,1.12,0,0,1-.9-.46L49.3,5.6l-4.88,6.75a1.1,1.1,0,0,1-.89.46,1.12,1.12,0,0,1-.65-.21,1.09,1.09,0,0,1-.24-1.53l5.77-8S48.5,3,48.54,3a.68.68,0,0,1,.12-.12l0,0a.81.81,0,0,1,.21-.1l.18-.07h.32m0-1H49.2a1.51,1.51,0,0,0-.3,0,1.56,1.56,0,0,0-.33.11l-.3.13-.06,0-.14.1a1.34,1.34,0,0,0-.24.23,1.34,1.34,0,0,0-.23.24l-5.77,8A2.12,2.12,0,0,0,41.45,12a2.12,2.12,0,0,0,2.08,1.77,2.11,2.11,0,0,0,1.7-.87L49.3,7.3l4.07,5.64a2.13,2.13,0,0,0,1.71.87A2.1,2.1,0,0,0,57.15,12a2.07,2.07,0,0,0-.37-1.56L51,2.49a1.16,1.16,0,0,0-.23-.25A1.35,1.35,0,0,0,50.53,2l-.12-.09-.07,0-.26-.11a1.69,1.69,0,0,0-.38-.13,1.42,1.42,0,0,0-.29,0Z"/><path class="g" d="M49.35,90.78l-.1-.5,0,.5-.2,0a.76.76,0,0,1-.23-.08,1.69,1.69,0,0,1-.3-.13h0l-.08-.05a1,1,0,0,1-.18-.17,1.13,1.13,0,0,1-.19-.19l-5.77-8a1.6,1.6,0,1,1,2.59-1.87l4.48,6.19,4.48-6.19a1.59,1.59,0,0,1,1.3-.67,1.55,1.55,0,0,1,.93.31,1.59,1.59,0,0,1,.65,1,1.63,1.63,0,0,1-.29,1.19l-5.77,8a.67.67,0,0,1-.17.17,1.13,1.13,0,0,1-.19.19l-.06.05h0a1.58,1.58,0,0,1-.23.11,1.5,1.5,0,0,1-.3.1l-.19,0Z"/><path class="d" d="M55.08,80.1a1.09,1.09,0,0,1,.64.21A1.11,1.11,0,0,1,56,81.85l-5.78,8a.5.5,0,0,1-.13.12,1.27,1.27,0,0,1-.11.13h0a.88.88,0,0,1-.22.1,1.34,1.34,0,0,1-.18.07h-.42a1.34,1.34,0,0,1-.18-.07.81.81,0,0,1-.21-.1h0a2.21,2.21,0,0,0-.25-.25l-5.77-8a1.1,1.1,0,0,1,.24-1.54,1.12,1.12,0,0,1,.65-.21,1.1,1.1,0,0,1,.89.46l4.88,6.76,4.88-6.76a1.12,1.12,0,0,1,.9-.46m0-1a2.13,2.13,0,0,0-1.71.87L49.3,85.61,45.23,80a2.11,2.11,0,0,0-1.7-.87,2.12,2.12,0,0,0-2.08,1.77,2.12,2.12,0,0,0,.38,1.56l5.77,8a1.16,1.16,0,0,0,.23.25,1.34,1.34,0,0,0,.24.23l.12.08.07,0,.26.11a1.88,1.88,0,0,0,.38.13,1.53,1.53,0,0,0,.3,0h.21a1.43,1.43,0,0,0,.29,0,1.69,1.69,0,0,0,.34-.11,2.38,2.38,0,0,0,.29-.13l.06,0,.14-.1a1.08,1.08,0,0,0,.24-.22,1.15,1.15,0,0,0,.23-.25l5.78-8a2.07,2.07,0,0,0,.37-1.56,2.1,2.1,0,0,0-2.07-1.77Z"/><circle class="h" cx="12.74" cy="18.96" r="12.24"/><path class="i" d="M12.43,23.6a.33.33,0,0,1-.25-.1.3.3,0,0,1-.1-.25v-7l-2,1.56a.32.32,0,0,1-.26.07.39.39,0,0,1-.23-.16l-.7-.91a.35.35,0,0,1-.06-.26A.3.3,0,0,1,9,16.36l3.19-2.46a.6.6,0,0,1,.16-.08l.17,0H14a.33.33,0,0,1,.33.35v9.1a.33.33,0,0,1-.09.25.33.33,0,0,1-.24.1Z"/></svg>