<svg xmlns="http://www.w3.org/2000/svg" viewBox="0 0 92.09 92.09"><defs><style>.a,.e,.g{fill:#12122d;}.a,.b,.c,.d{stroke:#7d82e7;}.a,.b,.c,.d,.f,.g{stroke-linecap:round;stroke-linejoin:round;}.b{fill:none;}.c,.d{fill:#7d82e7;}.c{fill-opacity:0.2;}.f{fill:#fff;stroke:#fff;}.g{stroke:#ffb2a3;}.h{fill:#ffb2a3;}</style></defs><circle class="a" cx="49.3" cy="47.12" r="37.88"/><path class="b" d="M76.63,42.05a27.79,27.79,0,0,0-54.55-.53"/><path class="b" d="M25.38,61.25a27.79,27.79,0,0,0,47.85,0"/><path class="c" d="M91.59,52.62v5.45c0,1.76-6.65,3.18-14.85,3.18S61.9,59.83,61.9,58.07V52.62Z"/><ellipse class="d" cx="76.74" cy="52.62" rx="14.84" ry="3.17"/><ellipse class="e" cx="76.75" cy="52.62" rx="8.94" ry="1.91"/><path class="c" d="M37.21,52.62v5.45c0,1.76-6.65,3.18-14.85,3.18S7.52,59.83,7.52,58.07V52.62Z"/><ellipse class="d" cx="22.36" cy="52.62" rx="14.84" ry="3.17"/><ellipse class="e" cx="22.08" cy="52.62" rx="8.94" ry="1.91"/><circle class="f" cx="76.63" cy="41.05" r="2.4"/><circle class="f" cx="22.08" cy="41.05" r="2.4"/><circle class="g" cx="12.74" cy="19.33" r="12.24"/><path class="h" d="M9.32,24.24a.38.38,0,0,1-.26-.1.36.36,0,0,1-.1-.25v-.84a1.05,1.05,0,0,1,.07-.3.8.8,0,0,1,.29-.37l1.84-1.84c.68-.52,1.24-1,1.66-1.33a5.32,5.32,0,0,0,.95-1,1.57,1.57,0,0,0,.3-.87,1.34,1.34,0,0,0-.3-.9,1.19,1.19,0,0,0-1-.36,1.35,1.35,0,0,0-.75.19,1.33,1.33,0,0,0-.47.5,2,2,0,0,0-.22.67.37.37,0,0,1-.18.25.52.52,0,0,1-.27.07H9.43a.3.3,0,0,1-.23-.09.32.32,0,0,1-.08-.2,3.15,3.15,0,0,1,.27-1.22,3.07,3.07,0,0,1,.74-1,3.34,3.34,0,0,1,1.15-.71,4.21,4.21,0,0,1,1.52-.26,4.51,4.51,0,0,1,2,.39A2.69,2.69,0,0,1,16,15.71a3,3,0,0,1,.4,1.56,2.88,2.88,0,0,1-.27,1.24,4,4,0,0,1-.79,1.1,12.76,12.76,0,0,1-1.23,1.09l-1.65,1.65h3.8a.34.34,0,0,1,.26.1.35.35,0,0,1,.09.25v1.19a.35.35,0,0,1-.09.25.38.38,0,0,1-.26.1Z"/></svg>