<svg xmlns="http://www.w3.org/2000/svg" viewBox="0 0 300 300"><defs><style>.a{isolation:isolate;}.b,.g{mix-blend-mode:multiply;}.c,.g{fill:#babad6;}.d{fill:#f1f1f1;}.d,.e{fill-opacity:0.25;}.d,.e,.f{stroke:#1b1464;stroke-linecap:round;stroke-linejoin:round;stroke-width:2px;}.e{fill:#8086ed;}.f{fill:none;}</style></defs><g class="a"><g class="b"><path class="c" d="M150,200.18a72.41,72.41,0,0,0-43.49-38.69l26.68-9.17Z"/></g><polygon class="d" points="150.04 97.97 149.97 200.18 133.16 152.32 106.48 161.5 150.04 97.97 150.04 97.97"/><g class="b"><path class="c" d="M150,200.18a72.45,72.45,0,0,1,43.55-38.63l-26.67-9.2Z"/></g><polygon class="e" points="150.04 97.97 149.97 200.18 166.85 152.35 193.52 161.55 150.04 97.97 150.04 97.97"/><path class="f" d="M213.13,251.1a115.91,115.91,0,0,1-126.26,0c24.57,12.1,63.13-25,63.13-52.21C150,226.11,188.56,263.2,213.13,251.1Z"/><path class="g" d="M150,261.8a107.59,107.59,0,0,1-33.21-5.22c13.15-6.3,25.52-18.07,33.21-31.29,7.69,13.22,20.06,25,33.22,31.29A108,108,0,0,1,150,261.8Z"/><path class="f" d="M265.85,154a115.74,115.74,0,0,1-52.71,97.14h0c-24.57,12.1-63.13-25-63.13-52.21,0,27.22-38.56,64.31-63.13,52.21h0a115.86,115.86,0,1,1,179-97.14Z"/><line class="f" x1="86.87" y1="251.1" x2="86.86" y2="251.09"/><line class="f" x1="213.14" y1="251.09" x2="213.13" y2="251.1"/></g></svg>