<svg xmlns="http://www.w3.org/2000/svg" viewBox="0 0 300 300"><defs><style>.a{fill:none;}.a,.c,.d{stroke:#1b1464;stroke-linecap:round;stroke-linejoin:round;stroke-width:2px;}.b{fill:#babad6;}.c{fill:#f1f1f1;}.c,.d{fill-opacity:0.25;}.d{fill:#8086ed;}</style></defs><path class="a" d="M50.87,90.47A114.86,114.86,0,0,0,36,187"/><path class="a" d="M257.58,128.52a114.7,114.7,0,0,0-97.81-87.76"/><path class="a" d="M116.46,265.36a114.84,114.84,0,0,0,112.79-32.09"/><path class="b" d="M235.92,223.43a59.18,59.18,0,0,0-25.83-39.94l23-1.41Z"/><polygon class="c" points="258.23 142.94 235.92 223.43 233.1 182.08 210.09 183.5 258.22 142.94 258.23 142.94"/><path class="b" d="M235.92,223.43a59.16,59.16,0,0,1,42.71-20.94l-19-13.06Z"/><polygon class="d" points="258.23 142.94 235.92 223.43 259.63 189.43 278.63 202.49 258.23 142.94 258.23 142.94"/><path class="b" d="M140.21,48.55a59.2,59.2,0,0,0-12.32,45.94L111.42,78.37Z"/><polygon class="c" points="65.53 85.95 140.21 48.55 111.42 78.36 127.89 94.49 65.53 85.95 65.53 85.95"/><path class="b" d="M140.21,48.55A59.17,59.17,0,0,1,96.05,30.9l3,22.85Z"/><polygon class="d" points="65.53 85.95 140.21 48.55 99.09 53.75 96.05 30.9 65.53 85.94 65.53 85.95"/><path class="b" d="M40.26,199.65a59.16,59.16,0,0,0,47.21-5.76L78.68,215.2Z"/><polygon class="c" points="102.87 254.92 40.26 199.65 78.68 215.2 87.47 193.89 102.87 254.92 102.87 254.92"/><path class="b" d="M40.26,199.65a59.17,59.17,0,0,1,.14,47.56l20.06-11.37Z"/><polygon class="d" points="102.87 254.92 40.26 199.65 60.46 235.84 40.4 247.21 102.87 254.92 102.87 254.92"/></svg>